<svg width="24" height="24" viewBox="0 0 24 24" fill="none" xmlns="http://www.w3.org/2000/svg">
<path d="M12 2C6.47656 2 2 6.47656 2 12C2 17.5234 6.47656 22 12 22C17.5234 22 22 17.5234 22 12C22 6.47656 17.5234 2 12 2ZM12 4C16.4102 4 20 7.58984 20 12C20 12.4688 19.9531 12.9297 19.875 13.375C19.6289 13.3203 19.2656 13.2539 18.8438 13.25C18.5312 13.2461 18.1406 13.2969 17.8125 13.3438C17.9258 12.9961 18 12.6133 18 12.2188C18 11.2578 17.5312 10.3633 16.7812 9.625C16.9883 8.85547 17.1914 7.53516 16.6562 7C15.0742 7 14.1992 8.12891 14.1562 8.1875C13.668 8.07031 13.1641 8 12.625 8C11.9336 8 11.2734 8.125 10.6562 8.3125L10.8438 8.15625C10.8438 8.15625 9.96484 6.9375 8.34375 6.9375C7.77734 7.50781 8.03516 8.95312 8.25 9.6875C7.48438 10.418 7 11.2812 7 12.2188C7 12.5469 7.07812 12.8594 7.15625 13.1562C6.87891 13.125 5.87891 13.0312 5.46875 13.0312C5.10547 13.0312 4.54297 13.1172 4.09375 13.2188C4.03125 12.8203 4 12.4141 4 12C4 7.58984 7.58984 4 12 4ZM5.46875 13.2812C5.86328 13.2812 7.0625 13.4219 7.21875 13.4375C7.23828 13.4922 7.25781 13.543 7.28125 13.5938C6.85156 13.5547 6.01953 13.4961 5.46875 13.5625C5.10156 13.6055 4.63281 13.7383 4.21875 13.8438C4.1875 13.7188 4.14844 13.5977 4.125 13.4688C4.5625 13.375 5.13672 13.2812 5.46875 13.2812ZM18.8438 13.5C19.2422 13.5039 19.6055 13.5703 19.8438 13.625C19.832 13.6914 19.7969 13.7461 19.7812 13.8125C19.5273 13.7539 19.1094 13.668 18.625 13.6562C18.3906 13.6523 18.0156 13.6641 17.6875 13.6875C17.7031 13.6562 17.707 13.625 17.7188 13.5938C18.0586 13.5469 18.4922 13.4961 18.8438 13.5ZM6.09375 13.7812C6.65625 13.7852 7.18359 13.8242 7.40625 13.8438C7.92969 14.8203 8.98828 15.543 10.625 15.8438C10.2227 16.0664 9.86328 16.3789 9.59375 16.75C9.35938 16.7695 9.11328 16.7812 8.875 16.7812C8.17969 16.7812 7.74609 16.1602 7.375 15.625C7 15.0898 6.53906 15.0312 6.28125 15C6.01953 14.9688 5.92969 15.1172 6.0625 15.2188C6.82422 15.8047 7.09766 16.5 7.40625 17.125C7.68359 17.6875 8.26562 18 8.90625 18H9.03125C9.01172 18.1094 9 18.2109 9 18.3125V19.4062C6.69141 18.4727 4.93359 16.5 4.28125 14.0625C4.69141 13.9609 5.15234 13.8555 5.5 13.8125C5.66016 13.793 5.86328 13.7773 6.09375 13.7812ZM18.625 13.9062C19.0742 13.918 19.4727 14.0039 19.7188 14.0625C19.168 16.1328 17.8086 17.8555 16 18.9062V18.3125C16 17.4609 15.3281 16.3672 14.375 15.8438C15.957 15.5547 16.9883 14.8633 17.5312 13.9375C17.9102 13.9102 18.3555 13.8984 18.625 13.9062ZM12.5 18C12.7734 18 13 18.2266 13 18.5V19.9375C12.6719 19.9805 12.3398 20 12 20V18.5C12 18.2266 12.2266 18 12.5 18ZM10.5 19C10.7734 19 11 19.2266 11 19.5V19.9375C10.6641 19.8945 10.3242 19.832 10 19.75V19.5C10 19.2266 10.2266 19 10.5 19ZM14.5 19C14.7422 19 14.9531 19.1758 15 19.4062C14.6758 19.5391 14.3438 19.6602 14 19.75V19.5C14 19.2266 14.2266 19 14.5 19Z" fill="white"/>
</svg>
