<svg width="80" height="80" viewBox="0 0 80 80" fill="none" xmlns="http://www.w3.org/2000/svg">
<circle cx="40" cy="40" r="40" fill="#008C8C" fill-opacity="0.9"/>
<path d="M24.24 52.15C23.08 52.15 21.77 52.05 20.31 51.85C19.51 51.75 18.96 51.54 18.66 51.22C18.36 50.9 18.23 50.38 18.27 49.66C18.41 47.68 18.74 45.24 19.26 42.34C19.78 39.42 20.41 36.61 21.15 33.91C21.29 33.41 21.57 33.06 21.99 32.86C22.41 32.66 22.96 32.56 23.64 32.56C24.86 32.56 25.47 32.9 25.47 33.58C25.47 33.86 25.41 34.18 25.29 34.54C24.77 36.14 24.25 38.29 23.73 40.99C23.21 43.67 22.84 46.23 22.62 48.67C23.22 48.73 23.9 48.76 24.66 48.76C28.16 48.76 30.77 47.7 32.49 45.58C34.23 43.46 35.1 40.63 35.1 37.09C35.1 34.71 34.42 32.87 33.06 31.57C31.7 30.27 29.78 29.62 27.3 29.62C25.7 29.62 24.11 29.87 22.53 30.37C20.97 30.87 19.56 31.53 18.3 32.35C18.04 32.53 17.76 32.62 17.46 32.62C17.12 32.62 16.85 32.48 16.65 32.2C16.45 31.9 16.35 31.54 16.35 31.12C16.35 30.64 16.43 30.25 16.59 29.95C16.75 29.63 17.02 29.34 17.4 29.08C18.78 28.14 20.4 27.43 22.26 26.95C24.12 26.45 25.91 26.2 27.63 26.2C30.07 26.2 32.18 26.63 33.96 27.49C35.74 28.33 37.11 29.57 38.07 31.21C39.03 32.85 39.51 34.83 39.51 37.15C39.51 40.17 38.91 42.81 37.71 45.07C36.51 47.31 34.76 49.05 32.46 50.29C30.16 51.53 27.42 52.15 24.24 52.15ZM51.3881 52.24C48.7281 52.24 46.5981 51.74 44.9981 50.74C43.3981 49.72 42.5981 48.17 42.5981 46.09C42.5981 44.99 42.7881 44.15 43.1681 43.57C43.5481 42.99 44.1081 42.7 44.8481 42.7C45.3881 42.7 45.8281 42.84 46.1681 43.12C46.5081 43.4 46.6781 43.76 46.6781 44.2C46.6781 44.6 46.6481 44.95 46.5881 45.25C46.5881 45.33 46.5681 45.47 46.5281 45.67C46.5081 45.87 46.4981 46.08 46.4981 46.3C46.4981 47.2 46.9481 47.87 47.8481 48.31C48.7681 48.75 50.0481 48.97 51.6881 48.97C53.3881 48.97 54.7181 48.67 55.6781 48.07C56.6381 47.45 57.1181 46.59 57.1181 45.49C57.1181 44.81 56.8981 44.23 56.4581 43.75C56.0181 43.25 55.4681 42.84 54.8081 42.52C54.1481 42.18 53.2181 41.77 52.0181 41.29C50.4781 40.69 49.2181 40.12 48.2381 39.58C47.2781 39.04 46.4481 38.31 45.7481 37.39C45.0681 36.45 44.7281 35.29 44.7281 33.91C44.7281 32.47 45.1081 31.19 45.8681 30.07C46.6481 28.95 47.7581 28.08 49.1981 27.46C50.6581 26.84 52.3681 26.53 54.3281 26.53C55.7881 26.53 57.1281 26.75 58.3481 27.19C59.5681 27.61 60.5381 28.26 61.2581 29.14C61.9981 30.02 62.3681 31.1 62.3681 32.38C62.3681 33.64 62.1781 34.59 61.7981 35.23C61.4181 35.87 60.8581 36.19 60.1181 36.19C59.5981 36.19 59.1581 36.03 58.7981 35.71C58.4581 35.39 58.2881 35.01 58.2881 34.57C58.2881 34.19 58.3181 33.84 58.3781 33.52C58.4381 32.92 58.4681 32.54 58.4681 32.38C58.4681 31.54 58.0581 30.9 57.2381 30.46C56.4181 30.02 55.3981 29.8 54.1781 29.8C52.4581 29.8 51.1381 30.12 50.2181 30.76C49.3181 31.38 48.8681 32.26 48.8681 33.4C48.8681 34.16 49.0981 34.81 49.5581 35.35C50.0381 35.89 50.6281 36.34 51.3281 36.7C52.0281 37.06 53.0081 37.49 54.2681 37.99C55.7881 38.61 57.0081 39.17 57.9281 39.67C58.8481 40.17 59.6281 40.85 60.2681 41.71C60.9281 42.57 61.2581 43.63 61.2581 44.89C61.2581 47.25 60.3581 49.07 58.5581 50.35C56.7781 51.61 54.3881 52.24 51.3881 52.24Z" fill="white" fill-opacity="0.9"/>
</svg>
