<svg width="55" height="30" viewBox="0 0 55 30" fill="none" xmlns="http://www.w3.org/2000/svg">
<path fill-rule="evenodd" clip-rule="evenodd" d="M1 2L27 28L27.7072 28.7071L53.7072 2.70709L53 2L27.7072 27.2929L1.70715 1.29291L1 2Z" fill="white" fill-opacity="0.9"/>
<path d="M27 28L26.6464 28.3536L26.6465 28.3536L27 28ZM1 2L0.646462 1.64643L0.292878 1.99998L0.646447 2.35355L1 2ZM27.7072 28.7071L27.3536 29.0607L27.7072 29.4142L28.0607 29.0606L27.7072 28.7071ZM53.7072 2.70709L54.0607 3.06065L54.4143 2.70708L54.0607 2.35352L53.7072 2.70709ZM53 2L53.3535 1.64643L53 1.29291L52.6464 1.64645L53 2ZM27.7072 27.2929L27.3536 27.6465L27.7072 28L28.0607 27.6465L27.7072 27.2929ZM1.70715 1.29291L2.06071 0.939354L1.70717 0.585816L1.35362 0.939339L1.70715 1.29291ZM27.3536 27.6464L1.35355 1.64645L0.646447 2.35355L26.6464 28.3536L27.3536 27.6464ZM28.0607 28.3535L27.3535 27.6464L26.6465 28.3536L27.3536 29.0607L28.0607 28.3535ZM53.3536 2.35354L27.3536 28.3535L28.0607 29.0606L54.0607 3.06065L53.3536 2.35354ZM52.6465 2.35357L53.3536 3.06066L54.0607 2.35352L53.3535 1.64643L52.6465 2.35357ZM28.0607 27.6465L53.3536 2.35355L52.6464 1.64645L27.3536 26.9394L28.0607 27.6465ZM1.3536 1.64646L27.3536 27.6465L28.0607 26.9394L2.06071 0.939354L1.3536 1.64646ZM1.35354 2.35357L2.06069 1.64648L1.35362 0.939339L0.646462 1.64643L1.35354 2.35357Z" fill="white" fill-opacity="0.9"/>
</svg>
