<svg width="278" height="150" viewBox="0 0 278 150" fill="none" xmlns="http://www.w3.org/2000/svg">
<path d="M213.32 127.348C247.189 93.481 252.818 44.202 225.892 17.278C198.97 -9.64298 149.693 -4.01498 115.826 29.85C81.959 63.716 91.756 128.418 103.256 139.92C112.549 149.213 179.455 161.213 213.32 127.348Z" fill="#F89939"/>
<path d="M74.35 78.411C54.702 58.763 26.108 55.492 10.483 71.116C-5.138 86.738 -1.872 115.336 17.78 134.981C37.432 154.635 74.975 148.95 81.643 142.276C87.039 136.889 94.004 98.061 74.35 78.411Z" fill="#3499CD"/>
<path d="M142.143 119.047C138.672 122.242 135.627 124.6 133.01 126.115C130.393 127.635 127.897 128.394 125.522 128.394C122.79 128.394 120.586 127.335 118.915 125.216C117.241 123.095 116.407 120.251 116.407 116.673C116.407 111.312 117.569 104.876 119.893 97.372C122.213 89.862 125.038 82.942 128.356 76.611L138.085 73.009C138.39 72.907 138.622 72.855 138.776 72.855C139.514 72.855 140.124 73.399 140.592 74.482C141.065 75.57 141.303 77.032 141.303 78.87C141.303 84.079 140.104 89.122 137.701 93.999C135.299 98.878 131.547 104.085 126.441 109.626C126.236 112.282 126.134 114.106 126.134 115.103C126.134 117.326 126.542 119.085 127.359 120.388C128.177 121.693 129.261 122.341 130.615 122.341C131.996 122.341 133.463 121.847 135.021 120.851C136.576 119.853 138.951 117.787 142.142 114.644V119.047H142.143ZM127.475 104.074C130.717 100.469 133.35 96.426 135.366 91.953C137.382 87.478 138.389 83.629 138.389 80.404C138.389 79.464 138.25 78.7 137.971 78.126C137.69 77.551 137.33 77.262 136.897 77.262C135.956 77.262 134.581 79.614 132.78 84.319C130.979 89.023 129.211 95.609 127.475 104.074Z" fill="#010101"/>
<path d="M170.795 119.047C167.553 122.242 164.643 124.6 162.063 126.115C159.483 127.635 156.639 128.394 153.522 128.394C150.049 128.394 147.247 127.283 145.112 125.064C142.981 122.839 141.917 119.918 141.917 116.291C141.917 110.879 143.792 105.982 147.55 101.603C151.3 97.222 155.464 95.033 160.034 95.033C162.409 95.033 164.309 95.648 165.741 96.873C167.171 98.1 167.886 99.707 167.886 101.699C167.886 106.986 162.269 111.273 151.034 114.568C152.054 119.545 154.722 122.037 159.038 122.037C160.724 122.037 162.331 121.584 163.862 120.68C165.397 119.772 167.706 117.758 170.796 114.645V119.047H170.795ZM150.725 111.963C157.26 110.123 160.53 106.729 160.53 101.775C160.53 99.324 159.635 98.099 157.85 98.099C156.164 98.099 154.557 99.38 153.026 101.949C151.49 104.514 150.725 107.85 150.725 111.963Z" fill="#010101"/>
<path d="M211.701 119.047C207.615 122.928 204.691 125.459 202.931 126.635C201.169 127.809 199.484 128.395 197.874 128.395C193.839 128.395 191.938 124.834 192.167 117.709C189.614 121.359 187.257 124.053 185.099 125.793C182.943 127.529 180.716 128.395 178.415 128.395C176.171 128.395 174.263 127.344 172.69 125.237C171.117 123.13 170.336 120.546 170.336 117.479C170.336 113.651 171.387 109.999 173.492 106.524C175.601 103.051 178.301 100.245 181.594 98.1C184.887 95.955 187.801 94.881 190.326 94.881C193.519 94.881 195.754 96.35 197.031 99.285L204.859 94.959H207.007L203.626 106.18C201.89 111.825 201.019 115.694 201.019 117.787C201.019 119.982 201.796 121.08 203.355 121.08C204.347 121.08 205.445 120.551 206.646 119.49C207.847 118.429 209.529 116.814 211.699 114.644V119.047H211.701ZM183.664 121.156C186.217 121.156 188.623 118.98 190.887 114.627C193.147 110.272 194.276 106.254 194.276 102.578C194.276 101.15 193.954 100.031 193.319 99.228C192.678 98.421 191.823 98.021 190.753 98.021C188.198 98.021 185.776 100.191 183.495 104.533C181.21 108.875 180.065 112.871 180.065 116.519C180.065 117.9 180.405 119.017 181.081 119.873C181.757 120.729 182.615 121.156 183.664 121.156Z" fill="#010101"/>
<path d="M240.314 119.047C233.904 125.328 228.962 128.471 225.49 128.471C223.931 128.471 222.615 127.813 221.545 126.502C220.475 125.186 219.936 123.557 219.936 121.615C219.936 118.015 221.866 113.191 225.721 107.138C223.83 108.109 221.764 108.783 219.516 109.167C217.856 112.231 215.25 115.526 211.702 119.046H210.823V115.603C212.813 113.535 214.614 111.312 216.223 108.937C214.024 107.966 212.928 106.523 212.928 104.611C212.928 102.642 213.596 100.543 214.94 98.306C216.28 96.074 218.124 94.958 220.475 94.958C222.467 94.958 223.461 95.976 223.461 98.02C223.461 99.629 222.887 101.926 221.736 104.915C225.974 104.454 229.677 101.214 232.845 95.186L236.329 95.032L232.767 104.837C231.287 108.974 230.329 111.792 229.896 113.284C229.463 114.776 229.244 116.1 229.244 117.247C229.244 118.321 229.494 119.179 229.99 119.813C230.488 120.456 231.16 120.772 232.002 120.772C232.92 120.772 233.803 120.458 234.645 119.836C235.487 119.205 237.377 117.477 240.315 114.643V119.047H240.314Z" fill="#010101"/>
<path d="M277.928 119.047C272.03 125.281 266.971 128.395 262.76 128.395C261.049 128.395 259.67 127.795 258.623 126.594C257.574 125.395 257.051 123.787 257.051 121.77C257.051 119.038 258.176 114.862 260.424 109.247C261.623 106.233 262.225 104.315 262.225 103.501C262.225 102.683 261.903 102.274 261.268 102.274C260.911 102.274 260.436 102.454 259.85 102.809C259.311 103.166 258.686 103.668 257.971 104.305C257.334 104.891 256.617 105.606 255.826 106.446C255.135 107.167 254.394 107.983 253.607 108.899L251.459 111.391C250.516 112.539 249.928 113.75 249.699 115.028C249.314 117.198 249.06 119.192 248.931 121.007C248.853 122.357 248.816 124.181 248.816 126.484L240.351 128.472C240.072 125.025 239.929 122.458 239.929 120.775C239.929 116.664 240.408 112.769 241.367 109.093C242.324 105.413 243.861 101.279 245.982 96.681L255.326 94.882C253.361 100.169 252.072 104.329 251.459 107.366C255.647 102.694 258.967 99.46 261.428 97.657C263.885 95.856 266.073 94.96 267.985 94.96C269.284 94.96 270.37 95.45 271.235 96.431C272.104 97.413 272.536 98.646 272.536 100.12C272.536 102.569 271.438 106.604 269.245 112.224C267.737 116.078 266.983 118.579 266.983 119.734C266.983 121.271 267.61 122.039 268.864 122.039C270.731 122.039 273.755 119.574 277.928 114.646V119.047V119.047Z" fill="#010101"/>
<path d="M162.619 76.8923C162.619 76.3288 162.405 75.8931 161.976 75.5851C161.556 75.2695 160.816 74.9991 159.756 74.7737C158.705 74.5483 157.867 74.2778 157.243 73.9623C156.627 73.6467 156.169 73.2711 155.868 72.8354C155.575 72.3996 155.429 71.8812 155.429 71.2802C155.429 70.281 155.85 69.4358 156.691 68.7446C157.54 68.0534 158.622 67.7078 159.937 67.7078C161.319 67.7078 162.438 68.0647 163.295 68.7784C164.159 69.4921 164.591 70.4049 164.591 71.5169H162.495C162.495 70.9459 162.251 70.4538 161.762 70.0406C161.281 69.6274 160.673 69.4208 159.937 69.4208C159.178 69.4208 158.584 69.586 158.156 69.9166C157.728 70.2472 157.514 70.6792 157.514 71.2126C157.514 71.7159 157.713 72.0953 158.111 72.3508C158.509 72.6062 159.227 72.8504 160.263 73.0833C161.308 73.3162 162.153 73.5942 162.799 73.9172C163.445 74.2403 163.922 74.6309 164.23 75.0892C164.546 75.54 164.704 76.0922 164.704 76.7458C164.704 77.8352 164.268 78.7104 163.396 79.3715C162.525 80.0252 161.394 80.352 160.004 80.352C159.028 80.352 158.164 80.1792 157.412 79.8336C156.661 79.488 156.071 79.0072 155.643 78.3911C155.222 77.7675 155.012 77.0951 155.012 76.3739H157.097C157.134 77.0726 157.412 77.6286 157.931 78.0418C158.457 78.4475 159.148 78.6503 160.004 78.6503C160.793 78.6503 161.424 78.4925 161.898 78.177C162.378 77.8539 162.619 77.4257 162.619 76.8923ZM172.31 78.6503C173.054 78.6503 173.704 78.4249 174.26 77.9742C174.816 77.5234 175.124 76.9599 175.184 76.2838H177.156C177.119 76.9825 176.878 77.6473 176.435 78.2784C175.992 78.9095 175.398 79.4129 174.654 79.7885C173.918 80.1642 173.137 80.352 172.31 80.352C170.65 80.352 169.328 79.7998 168.344 78.6954C167.367 77.5835 166.879 76.0659 166.879 74.1426V73.7932C166.879 72.6062 167.096 71.5507 167.532 70.6266C167.968 69.7025 168.591 68.985 169.403 68.4741C170.222 67.9633 171.187 67.7078 172.299 67.7078C173.666 67.7078 174.801 68.1173 175.702 68.9362C176.611 69.7551 177.096 70.8182 177.156 72.1254H175.184C175.124 71.3365 174.823 70.6904 174.282 70.1871C173.749 69.6762 173.088 69.4208 172.299 69.4208C171.24 69.4208 170.417 69.8039 169.831 70.5702C169.253 71.329 168.963 72.4297 168.963 73.8721V74.2666C168.963 75.6715 169.253 76.7533 169.831 77.5121C170.41 78.2709 171.236 78.6503 172.31 78.6503ZM181.765 80.1266H179.68V67.9332H181.765V80.1266ZM179.511 64.6989C179.511 64.3609 179.613 64.0754 179.816 63.8425C180.026 63.6096 180.334 63.4931 180.74 63.4931C181.145 63.4931 181.453 63.6096 181.664 63.8425C181.874 64.0754 181.979 64.3609 181.979 64.6989C181.979 65.037 181.874 65.3187 181.664 65.5441C181.453 65.7695 181.145 65.8822 180.74 65.8822C180.334 65.8822 180.026 65.7695 179.816 65.5441C179.613 65.3187 179.511 65.037 179.511 64.6989ZM188.516 74.4807L187.208 75.8443V80.1266H185.124V62.817H187.208V73.2861L188.324 71.9451L192.122 67.9332H194.657L189.913 73.0269L195.21 80.1266H192.764L188.516 74.4807ZM199.075 80.1266H196.99V67.9332H199.075V80.1266ZM196.821 64.6989C196.821 64.3609 196.922 64.0754 197.125 63.8425C197.336 63.6096 197.644 63.4931 198.049 63.4931C198.455 63.4931 198.763 63.6096 198.973 63.8425C199.184 64.0754 199.289 64.3609 199.289 64.6989C199.289 65.037 199.184 65.3187 198.973 65.5441C198.763 65.7695 198.455 65.8822 198.049 65.8822C197.644 65.8822 197.336 65.7695 197.125 65.5441C196.922 65.3187 196.821 65.037 196.821 64.6989ZM205.25 64.9807V67.9332H207.527V69.5447H205.25V77.1064C205.25 77.5948 205.352 77.9629 205.555 78.2108C205.758 78.4512 206.103 78.5714 206.592 78.5714C206.832 78.5714 207.162 78.5263 207.583 78.4362V80.1266C207.035 80.2768 206.501 80.352 205.983 80.352C205.051 80.352 204.349 80.0702 203.876 79.5068C203.402 78.9433 203.166 78.1432 203.166 77.1064V69.5447H200.946V67.9332H203.166V64.9807H205.25Z" fill="white"/>
</svg>
